<?xml version="1.0" standalone="no"?>
<!DOCTYPE svg PUBLIC "-//W3C//DTD SVG 20010904//EN"
 "http://www.w3.org/TR/2001/REC-SVG-20010904/DTD/svg10.dtd">
<svg version="1.0" xmlns="http://www.w3.org/2000/svg"
 width="400.000000pt" height="400.000000pt" viewBox="0 0 400.000000 400.000000"
 preserveAspectRatio="xMidYMid meet">
<metadata>
Created by potrace 1.11, written by Peter Selinger 2001-2013
</metadata>
<g transform="translate(0.000000,400.000000) scale(0.100000,-0.100000)"
fill="#000000" stroke="none">
<path d="M621 3829 c-5 -13 -7 -27 -5 -30 2 -3 -3 -6 -11 -6 -8 0 -15 4 -15 9
0 4 -5 8 -11 8 -6 0 -8 -10 -5 -22 3 -13 3 -17 0 -10 -3 6 -10 10 -15 6 -13
-8 -11 20 3 34 9 9 9 12 1 12 -7 0 -15 -9 -18 -20 -4 -11 -11 -17 -17 -14 -8
5 -9 1 -5 -10 4 -10 3 -15 -3 -11 -6 3 -10 12 -10 19 0 9 -9 12 -25 8 -25 -4
-25 -5 -8 -25 18 -20 18 -21 -7 -4 -33 23 -43 21 -34 -5 6 -19 5 -21 -8 -11
-12 10 -15 10 -15 -2 0 -7 3 -14 6 -13 20 2 31 -4 31 -16 0 -8 -6 -16 -12 -19
-7 -2 5 -4 26 -3 31 1 40 -3 42 -17 2 -17 1 -17 -14 -3 -20 17 -39 9 -39 -16
0 -18 11 -15 13 3 1 5 2 11 3 14 1 5 41 -32 41 -39 0 -2 -8 -2 -19 1 -10 3
-22 -1 -26 -8 -5 -7 -4 -10 3 -6 13 9 44 -2 37 -14 -3 -4 -11 -7 -18 -5 -7 1
-9 1 -4 -1 4 -3 7 -9 7 -14 0 -6 -6 -7 -12 -3 -7 4 -4 -2 6 -14 18 -21 20 -21
33 -4 13 15 13 15 3 -6 -9 -19 -14 -21 -31 -11 -16 8 -24 8 -33 -1 -8 -8 -7
-10 6 -5 12 5 16 2 13 -12 -1 -10 -8 -17 -15 -15 -6 1 -9 -2 -5 -8 3 -6 11 -8
16 -5 5 4 12 -1 15 -9 3 -9 11 -13 18 -9 7 4 7 2 -1 -7 -13 -14 -5 -26 32 -48
19 -12 19 -12 1 -10 -10 2 -21 -3 -24 -11 -3 -8 0 -11 7 -7 6 4 11 4 12 -1 0
-4 2 -16 4 -26 4 -20 -30 -43 -40 -27 -3 5 -11 10 -17 10 -7 0 -6 -5 1 -14 9
-11 9 -16 0 -22 -8 -5 -9 -3 -4 6 6 10 4 12 -8 7 -10 -4 -16 -2 -14 5 1 6 -4
13 -12 16 -10 3 -11 0 -5 -9 6 -11 3 -10 -11 1 -10 8 -20 13 -22 12 -3 -2 -7
-1 -10 2 -3 3 4 4 16 1 27 -5 27 7 -1 31 -13 10 -17 12 -10 4 18 -21 15 -29
-9 -25 -12 3 -19 2 -16 -2 4 -3 -5 -17 -19 -30 -22 -20 -19 -29 9 -24 8 1 9
-6 9 -56 0 -18 7 -38 14 -44 8 -6 14 -16 14 -22 0 -6 -8 0 -17 13 -10 14 -17
28 -16 32 2 4 -4 5 -13 1 -13 -5 -13 -7 -2 -14 18 -11 18 -61 0 -75 -13 -9
-12 -11 2 -11 9 0 16 5 16 10 0 5 6 5 13 -2 10 -8 17 -7 27 2 12 10 12 9 2 -4
-6 -9 -8 -20 -4 -25 4 -4 0 -3 -10 4 -11 9 -18 10 -23 2 -3 -5 -1 -10 5 -10 6
0 9 -4 5 -9 -3 -5 0 -13 6 -17 8 -4 9 -3 5 4 -5 8 -2 10 8 6 18 -7 22 -25 5
-22 -6 2 -14 -3 -17 -11 -3 -8 0 -11 7 -7 6 4 11 0 11 -9 0 -10 -5 -13 -12 -9
-10 6 -10 4 0 -8 7 -9 9 -18 5 -20 -4 -3 -2 -3 5 -1 8 1 12 -3 9 -9 -2 -7 -12
-12 -22 -11 -12 1 -14 -2 -6 -10 7 -7 14 -7 23 0 9 8 19 5 33 -10 l20 -20 -22
12 c-14 7 -24 8 -28 1 -3 -5 1 -10 9 -10 9 0 16 -5 16 -11 0 -5 -5 -7 -12 -3
-7 5 -8 3 -2 -7 12 -19 12 -32 -1 -42 -6 -5 -3 -7 8 -3 15 5 22 -4 18 -26 0
-5 4 -8 9 -8 6 0 10 5 10 10 0 6 5 10 12 10 7 0 6 -6 -4 -17 -16 -18 -14 -43
3 -43 5 0 8 3 8 8 -3 19 2 32 12 32 8 0 8 -4 0 -14 -10 -11 -7 -17 11 -30 12
-9 17 -16 10 -16 -7 0 -11 -11 -10 -29 1 -16 6 -28 10 -25 4 3 5 12 2 22 -5
13 -4 14 4 3 15 -20 3 -51 -16 -44 -10 4 -14 3 -10 -1 3 -4 14 -9 25 -10 20
-3 24 -24 9 -45 -9 -12 -8 -13 4 -6 29 18 57 13 55 -9 -1 -14 -8 -20 -19 -18
-9 2 -16 -1 -16 -6 0 -8 15 -12 55 -13 16 0 17 -2 5 -9 -8 -5 -23 -7 -33 -4
-13 4 -11 -1 8 -20 16 -16 23 -31 19 -43 -5 -15 -4 -16 5 -3 8 11 11 12 11 2
0 -7 4 -11 9 -8 5 3 11 0 14 -8 4 -9 0 -12 -13 -9 -10 3 -21 -1 -25 -7 -5 -9
-2 -10 12 -6 13 4 29 -1 44 -13 20 -16 22 -22 11 -33 -11 -11 -12 -10 -7 4 9
22 -21 36 -38 19 -8 -8 -8 -14 2 -23 10 -11 11 -10 6 5 -5 12 -2 17 10 17 11
0 15 -5 12 -15 -4 -8 -2 -17 4 -20 5 -4 6 -11 3 -17 -4 -7 -2 -8 4 -4 16 10
15 -6 0 -24 -11 -12 -10 -12 4 -1 18 14 38 7 38 -12 0 -7 -4 -6 -11 3 -9 12
-9 11 -4 -5 4 -11 8 -25 8 -32 0 -7 6 -14 14 -17 11 -4 11 -1 3 14 -8 15 -8
25 0 38 9 14 10 13 4 -7 -4 -16 -3 -21 5 -17 7 5 8 1 4 -10 -4 -11 -2 -15 4
-11 5 4 18 1 27 -6 15 -11 15 -14 1 -32 -16 -20 -16 -20 -6 2 8 16 7 22 -3 26
-9 4 -13 -4 -13 -24 0 -21 4 -28 14 -24 7 3 21 8 31 11 14 5 15 4 2 -5 -8 -6
-16 -15 -16 -21 -3 -23 -5 -24 -13 -12 -7 11 -9 11 -14 -1 -6 -15 9 -17 30 -4
6 4 14 3 18 -3 3 -5 1 -10 -4 -10 -6 0 -11 -5 -11 -12 0 -6 13 0 28 15 20 19
29 23 29 13 0 -8 -4 -13 -9 -10 -4 3 -8 1 -8 -4 0 -17 13 -22 29 -10 13 10 14
10 4 -2 -17 -18 -17 -38 -1 -22 7 7 17 12 23 12 5 0 2 -5 -7 -11 -10 -5 -18
-15 -18 -20 0 -6 4 -8 9 -5 4 3 17 -1 27 -9 16 -12 7 -22 -11 -12 -2 1 -12 -8
-20 -21 -9 -12 -22 -19 -28 -15 -7 3 -4 -3 6 -14 9 -11 14 -22 11 -26 -3 -3
-1 -14 6 -24 9 -16 10 -15 4 7 -5 21 -4 23 7 12 18 -17 18 -34 -1 -50 -13 -10
-13 -11 3 -6 10 4 17 3 15 -2 -1 -5 3 -18 9 -29 16 -29 16 -37 1 -46 -9 -6 -6
-8 10 -6 23 1 32 17 10 17 -9 0 -8 4 2 10 24 15 32 12 25 -11 -5 -14 -3 -19 3
-15 6 3 14 1 17 -5 10 -15 -2 -24 -17 -12 -8 6 -22 7 -33 2 -17 -7 -16 -8 8
-8 16 -1 37 -11 50 -25 18 -19 27 -22 42 -14 18 9 19 8 3 -5 -10 -8 -15 -17
-12 -20 3 -3 1 -14 -5 -24 -10 -16 -11 -15 -9 7 2 17 -4 28 -22 37 -14 7 -24
17 -23 21 1 4 -8 8 -20 9 -12 0 -16 -1 -9 -4 6 -3 12 -9 12 -14 0 -6 -4 -8 -8
-5 -4 2 -8 -4 -8 -15 0 -18 2 -18 12 -5 14 19 25 21 22 4 -2 -7 -12 -18 -22
-24 -19 -11 -19 -12 1 -18 13 -4 20 -14 18 -24 -1 -9 6 -28 16 -41 20 -25 25
-46 10 -36 -5 3 -13 1 -16 -5 -4 -6 -1 -9 7 -8 7 2 12 -3 10 -10 -1 -8 2 -11
7 -8 5 4 11 0 14 -6 3 -10 8 -9 22 2 11 9 16 10 11 3 -7 -12 5 -18 28 -14 5 1
4 -4 -2 -12 -7 -8 -8 -18 -4 -22 4 -5 1 -5 -5 -1 -15 8 -18 -10 -3 -19 14 -9
12 -28 -2 -22 -7 2 -12 9 -11 15 2 6 -7 16 -20 22 -19 9 -20 9 -6 -2 9 -7 14
-19 12 -25 -3 -7 0 -13 7 -13 6 0 8 -5 4 -12 -5 -8 -2 -9 9 -5 11 4 17 1 17
-8 0 -7 -8 -15 -17 -17 -15 -3 -14 -5 5 -10 12 -3 20 -2 16 3 -3 5 -1 9 4 9 6
0 13 -7 16 -16 3 -8 2 -12 -4 -9 -6 3 -10 1 -10 -4 0 -6 5 -11 10 -11 7 0 7
-6 0 -19 -7 -14 -7 -22 0 -26 6 -4 7 -11 4 -17 -4 -7 -2 -8 4 -4 7 4 12 2 12
-5 0 -9 4 -9 15 1 12 10 13 7 5 -19 -7 -25 -6 -31 6 -31 10 0 12 5 8 13 -5 8
-2 7 9 -2 12 -9 14 -17 7 -26 -6 -7 -6 -15 1 -22 8 -8 8 -17 0 -31 -17 -32
-13 -36 10 -11 20 24 20 24 9 1 -6 -12 -7 -22 -1 -22 5 0 8 -13 7 -30 -2 -23
1 -27 11 -18 9 7 10 15 4 22 -7 8 -4 12 9 12 16 0 17 -3 5 -26 -8 -16 -10 -32
-5 -40 5 -8 6 -18 3 -23 -3 -5 5 -6 18 -2 19 5 21 4 9 -4 -13 -10 -13 -11 0
-12 8 -1 18 -1 21 -1 4 1 5 -17 4 -39 -3 -35 -1 -38 13 -27 10 9 13 9 9 1 -4
-6 -3 -14 3 -18 6 -4 8 -11 4 -16 -3 -5 -10 -7 -15 -3 -5 3 -7 9 -4 14 3 4 -5
6 -17 2 -16 -4 -18 -7 -8 -10 8 -2 23 -14 33 -26 10 -11 16 -16 13 -9 -4 6 -2
15 4 18 6 4 10 3 9 -2 -1 -4 0 -11 1 -15 1 -5 3 -14 4 -20 1 -7 8 -12 16 -10
11 3 11 0 -1 -14 -12 -16 -12 -17 2 -12 9 4 16 1 16 -7 0 -8 -7 -11 -16 -7
-14 5 -14 3 -3 -11 8 -9 10 -21 6 -28 -4 -7 -2 -10 7 -7 8 3 13 11 11 17 -1 7
2 10 7 6 16 -10 0 -35 -23 -36 -15 -1 -12 -3 11 -10 18 -5 35 -14 39 -21 5 -7
3 -8 -6 -3 -15 9 -76 18 -68 10 3 -3 15 -7 26 -10 12 -2 30 -9 39 -15 15 -10
16 -11 1 -6 -13 4 -15 0 -11 -17 3 -12 6 -34 6 -48 1 -17 7 -25 14 -22 15 6
17 23 4 23 -6 0 -8 9 -6 20 2 11 -1 20 -7 20 -6 0 -9 3 -5 6 3 3 14 1 24 -5
11 -6 13 -11 5 -11 -7 0 -10 -5 -7 -10 4 -6 10 -8 15 -5 5 3 12 0 16 -6 4 -8
3 -9 -4 -5 -8 5 -12 0 -12 -13 0 -10 -3 -28 -6 -38 -4 -12 -1 -11 8 4 13 22
14 22 26 3 8 -13 8 -20 1 -20 -5 0 -8 -4 -5 -9 4 -5 -2 -8 -11 -7 -10 2 -12 1
-5 -1 6 -3 12 -9 12 -14 0 -6 3 -8 8 -5 4 2 18 -2 32 -10 14 -7 21 -13 17 -14
-5 0 -17 5 -28 10 -26 14 -24 -1 4 -25 l22 -20 -25 -4 c-23 -3 -23 -4 9 -15
19 -6 36 -18 39 -26 3 -12 2 -12 -6 -1 -5 7 -24 15 -42 17 -19 2 -31 1 -28 -2
5 -5 28 -11 51 -13 4 -1 7 -5 7 -11 0 -5 -6 -8 -12 -6 -7 1 -10 1 -5 -1 4 -3
4 -10 0 -16 -4 -7 1 -6 10 2 19 15 27 12 31 -16 2 -10 7 -16 12 -13 5 3 8 9 6
13 -1 5 3 5 9 2 8 -5 8 -10 0 -18 -14 -14 -14 -28 0 -24 6 1 14 -5 16 -13 4
-12 3 -13 -5 -1 -8 11 -12 9 -22 -9 -6 -12 -9 -24 -6 -28 3 -3 6 0 6 6 0 7 5
12 11 12 5 0 7 -6 3 -12 -4 -7 -4 -10 1 -6 4 4 14 3 22 -3 7 -6 13 -8 13 -4 0
4 6 3 13 -3 7 -5 21 -6 32 -1 l20 8 -20 1 c-11 2 -23 2 -27 1 -5 0 -8 4 -8 10
0 6 -7 9 -15 5 -22 -8 -18 2 6 15 12 6 19 7 15 1 -3 -5 1 -13 10 -16 25 -9 27
-7 13 11 -13 15 -12 15 9 4 13 -7 28 -10 35 -7 9 3 9 5 0 5 -7 1 -13 9 -13 18
0 13 3 14 12 5 7 -7 17 -12 22 -12 6 0 4 5 -4 10 -11 7 -12 12 -3 21 6 6 9 19
6 28 -3 9 4 4 14 -12 11 -15 23 -24 26 -20 6 5 11 -18 9 -39 -1 -3 5 -9 13
-12 9 -3 64 36 145 105 71 60 130 112 130 114 0 2 -15 25 -32 52 -18 26 -33
53 -34 60 -4 27 16 11 53 -42 21 -30 40 -55 44 -55 3 0 31 42 64 93 32 50 77
121 100 157 83 128 232 365 243 386 6 12 14 34 17 50 10 59 17 90 36 174 5 25
10 51 11 58 1 6 5 12 9 12 5 0 6 6 3 14 -3 8 0 17 5 21 6 3 9 11 6 16 -4 5 0
9 7 9 9 0 9 3 -2 10 -11 7 -11 10 -2 10 7 0 10 5 6 12 -4 6 -3 8 4 4 11 -6 9
-32 -8 -96 -5 -19 -12 -51 -15 -70 -3 -19 -8 -43 -11 -52 -5 -17 -10 -39 -19
-93 -3 -16 47 74 110 200 63 127 120 229 126 227 6 -1 7 2 4 8 -7 11 17 72 38
99 6 7 12 20 13 28 2 8 10 23 20 34 9 10 13 19 9 19 -4 0 0 9 10 20 10 11 14
20 10 20 -4 0 -1 8 8 18 10 10 15 21 12 24 -3 2 1 5 9 5 11 0 12 -4 3 -19 -7
-10 -14 -18 -17 -18 -3 0 -6 -8 -7 -17 -2 -27 -21 -73 -31 -73 -4 0 -8 -10 -9
-22 -1 -11 -7 -24 -13 -28 -7 -4 -12 -11 -13 -16 -1 -5 -5 -8 -9 -7 -4 2 -5
-4 -2 -11 5 -12 -71 -185 -127 -288 -11 -21 -18 -38 -15 -38 8 0 1056 1398
1056 1407 0 5 -61 30 -135 57 -75 27 -138 53 -141 57 -3 5 -10 7 -15 4 -5 -4
-9 -1 -9 5 0 6 -4 8 -10 5 -5 -3 -10 -1 -10 5 0 7 6 10 14 7 16 -6 32 9 38 33
2 8 8 18 13 22 6 5 5 8 -3 8 -9 0 -11 10 -7 33 3 17 7 45 10 61 4 27 19 45 38
46 12 0 12 -21 2 -131 l-7 -77 52 -7 c29 -4 56 -3 60 1 12 13 32 217 24 240
-10 27 -53 64 -78 65 -43 3 -80 -2 -93 -12 -10 -9 -13 -8 -13 3 0 10 -13 18
-36 21 -48 8 -64 0 -64 -34 0 -16 -3 -28 -7 -28 -21 3 -24 -3 -12 -18 13 -16
12 -17 -3 -5 -10 8 -16 17 -15 21 1 3 -10 20 -25 36 -15 16 -24 33 -21 39 3 6
3 8 -1 4 -4 -3 -25 -1 -45 7 -46 16 -128 11 -151 -10 -9 -8 -20 -12 -25 -8 -4
5 -5 3 -2 -3 4 -7 0 -17 -8 -24 -8 -7 -15 -9 -15 -5 0 4 -7 2 -15 -5 -10 -9
-15 -9 -15 -1 0 10 12 15 31 13 3 -1 6 5 6 13 0 10 -5 11 -18 5 -14 -8 -16 -6
-12 10 7 25 -15 53 -36 45 -22 -8 -6 6 21 19 14 7 24 22 26 38 6 52 -81 80
-112 36 -22 -31 -20 -53 7 -71 l22 -16 -22 0 c-17 -1 -23 -9 -29 -43 -5 -24
-8 -53 -8 -65 0 -12 -3 -20 -7 -17 -4 2 -12 -4 -18 -13 -6 -10 -11 -13 -11 -6
0 7 -10 22 -22 33 -20 18 -20 20 -4 14 14 -5 17 -4 12 4 -4 7 -2 12 4 12 6 0
9 4 5 9 -3 5 0 15 7 23 15 15 17 53 4 65 -5 4 -6 2 -2 -4 4 -7 2 -13 -3 -13
-6 0 -11 5 -11 11 0 6 -7 8 -15 5 -9 -3 -18 1 -21 8 -4 9 -19 13 -44 11 -24
-1 -37 1 -34 7 4 6 -5 2 -19 -7 -14 -9 -28 -15 -30 -13 -3 2 -21 -12 -41 -30
-20 -18 -36 -31 -37 -30 0 2 -3 19 -6 38 -2 19 -7 37 -9 40 -3 2 -28 4 -57 5
-49 0 -52 -1 -55 -28 -2 -15 -7 -25 -11 -23 -4 3 -7 -5 -6 -17 1 -12 -7 -28
-18 -36 -19 -14 -19 -15 -2 -28 17 -12 17 -13 2 -13 -9 0 -17 -5 -17 -11 0 -5
4 -8 8 -5 5 3 9 -1 9 -9 0 -8 -4 -15 -9 -15 -4 0 -8 5 -8 11 0 5 -5 7 -11 3
-8 -4 -8 -1 -1 12 5 11 8 37 7 59 -1 22 3 46 9 54 9 12 8 13 -3 7 -10 -7 -12
-3 -6 13 10 33 -9 48 -65 50 -49 1 -57 -5 -51 -41 0 -5 -3 -8 -9 -8 -5 0 -6
-7 -3 -17 5 -11 3 -14 -6 -8 -10 6 -11 3 -1 -15 7 -13 8 -20 2 -16 -6 3 -13 2
-16 -3 -4 -5 2 -11 11 -13 16 -3 16 -4 -2 -9 -18 -5 -20 -1 -19 36 1 24 5 49
10 56 6 11 4 11 -10 0 -15 -13 -19 -13 -27 0 -6 10 -9 10 -9 2 0 -15 -36 -17
-45 -3 -4 6 -10 8 -15 5 -4 -3 -7 3 -6 12 2 14 14 17 61 18 l58 0 4 46 4 46
-48 6 c-184 24 -192 22 -193 -31 0 -13 -4 -21 -10 -17 -5 3 -7 13 -4 23 5 16
5 16 -6 0 -6 -10 -19 -22 -30 -28 -15 -8 -18 -6 -15 8 1 9 9 16 17 16 8 -1 15
4 15 10 0 7 -8 12 -18 12 -10 0 -16 -3 -14 -6 2 -3 -6 -17 -16 -30 -19 -23
-19 -23 -9 -2 11 23 7 26 -32 23 -10 -1 -18 3 -18 8 0 6 -5 11 -10 11 -6 0 -3
-11 5 -24 16 -23 15 -24 -4 -19 -12 3 -18 10 -15 17 3 6 -4 0 -15 -13 -24 -27
-42 -21 -20 6 13 16 12 17 -3 5 -13 -10 -22 -11 -38 -2 -12 7 -42 10 -66 8
l-44 -3 6 56 6 56 -53 7 c-28 4 -55 3 -60 -1 -7 -8 -19 -68 -22 -110 0 -13 -7
-23 -15 -23 -7 0 -11 4 -7 9 3 5 1 12 -4 16 -5 3 -8 14 -6 25 3 13 -1 17 -12
13 -12 -5 -12 -7 -1 -14 8 -5 9 -9 2 -9 -6 0 -17 6 -23 14 -10 11 -9 15 3 18
11 2 9 6 -9 15 -17 8 -27 8 -32 1 -4 -7 -1 -8 7 -3 9 6 11 4 5 -5 -5 -9 -4
-11 3 -6 8 5 10 1 5 -10 -6 -15 -7 -15 -15 0 -8 14 -13 15 -24 5 -12 -10 -17
-10 -27 0 -9 10 -8 11 5 6 11 -4 20 1 28 14 7 14 7 21 0 21 -5 0 -10 -7 -10
-15 0 -17 -16 -20 -25 -5 -10 16 -25 1 -18 -18 6 -14 4 -15 -9 -4 -13 10 -18
10 -24 1 -4 -8 -3 -9 4 -5 7 4 12 3 12 -2 0 -10 -47 -27 -63 -23 -5 1 -6 -3
-3 -8 8 -13 -20 -33 -41 -29 -11 2 -18 12 -17 25 1 13 -3 20 -7 17 -5 -3 -9 0
-9 6 0 6 -4 8 -10 5 -5 -3 -10 -2 -10 3 0 17 -61 36 -111 35 -49 -1 -111 -30
-128 -60 -7 -14 -12 -14 -39 2 -29 17 -34 35 -11 35 6 0 8 -4 4 -9 -3 -6 5
-15 17 -21 22 -11 22 -10 4 4 -14 12 -16 16 -5 16 12 0 12 2 -1 10 -8 5 -22 7
-30 5 -8 -2 -22 0 -30 6 -11 7 -5 9 25 7 55 -3 65 6 65 58 0 39 -3 44 -22 45
-13 0 -31 2 -41 4 -10 2 -46 6 -80 10 -34 3 -79 8 -99 12 -33 5 -39 3 -47 -18z
m-161 -64 c7 -9 8 -15 2 -15 -5 0 -12 7 -16 15 -3 8 -4 15 -2 15 2 0 9 -7 16
-15z m27 -29 c0 -8 -6 -12 -15 -9 -11 5 -11 7 0 14 7 5 13 9 14 9 0 0 1 -6 1
-14z m213 -10 c0 -2 -8 -10 -17 -17 -16 -13 -17 -12 -4 4 13 16 21 21 21 13z
m141 -56 c5 0 9 -5 9 -11 0 -8 -4 -9 -13 0 -8 6 -16 8 -20 5 -3 -3 -4 2 -2 13
5 28 7 29 12 11 2 -10 9 -18 14 -18z m-155 -17 c-12 -107 -18 -169 -20 -178 0
-5 9 -11 22 -13 12 -2 22 -8 22 -13 0 -6 5 -7 12 -3 8 5 9 2 5 -9 -5 -14 -2
-15 18 -7 18 7 24 6 22 -3 -1 -7 4 -11 11 -9 8 1 11 -1 8 -6 -3 -5 -22 -7 -43
-6 -21 1 -55 3 -75 5 -21 1 -38 6 -38 11 0 5 -9 7 -19 3 -11 -3 -23 -1 -26 6
-6 8 -10 7 -17 -2 -8 -11 -9 -11 -5 1 2 8 10 14 17 12 7 -2 10 3 7 12 -4 9 -1
18 5 22 7 4 6 9 -3 15 -8 5 -9 9 -3 9 17 0 25 -12 14 -24 -6 -8 -3 -12 10 -12
14 0 16 4 9 17 -5 10 -6 26 -3 36 4 12 3 14 -3 6 -6 -9 -12 -6 -22 10 -13 20
-13 21 2 8 20 -16 23 -2 5 19 -7 8 -1 5 13 -8 34 -30 44 -28 15 3 -23 25 -30
55 -13 55 5 0 7 -7 3 -15 -3 -8 -1 -15 4 -15 6 0 10 9 10 21 0 11 5 17 10 14
6 -3 10 -2 10 4 0 6 -14 9 -30 7 -26 -3 -28 -1 -18 11 8 10 14 11 16 4 3 -8 9
-8 23 -1 13 8 19 7 19 0 0 -6 5 -8 12 -4 9 6 9 9 0 12 -10 3 -10 7 0 20 10 12
10 14 1 8 -7 -4 -13 -2 -13 3 0 6 7 11 15 11 11 0 14 -9 11 -37z m-45 7 c6 0
7 5 3 12 -5 7 -3 8 5 3 9 -5 9 -11 3 -17 -12 -12 -32 -2 -31 15 0 9 2 9 6 0 2
-7 9 -13 14 -13z m1229 -20 c0 -5 -5 -10 -11 -10 -5 0 -7 5 -4 10 3 6 8 10 11
10 2 0 4 -4 4 -10z m-800 -14 c0 -2 -7 -6 -15 -10 -8 -3 -15 -1 -15 4 0 6 7
10 15 10 8 0 15 -2 15 -4z m727 -15 c-2 -10 -1 -25 4 -33 5 -9 4 -15 -4 -15
-8 0 -12 11 -11 26 2 37 3 41 10 41 4 0 4 -8 1 -19z m-310 -11 c-1 -21 -10
-18 -13 5 -1 8 2 15 6 15 5 0 8 -9 7 -20z m339 -6 c1 -9 0 -13 -4 -10 -3 4 -7
14 -8 22 -1 9 0 13 4 10 3 -4 7 -14 8 -22z m124 22 c0 -2 -8 -10 -17 -17 -16
-13 -17 -12 -4 4 13 16 21 21 21 13z m-1421 -9 c-2 -1 -13 -9 -24 -17 -19 -14
-19 -14 -6 3 7 9 18 17 24 17 6 0 8 -1 6 -3z m1129 -86 c2 -18 -3 -40 -10 -49
-7 -9 -8 -13 -2 -9 8 5 9 -6 3 -36 -4 -23 -8 -43 -8 -44 -1 -2 -1 -8 -1 -14 0
-5 -6 -7 -12 -3 -8 4 -10 3 -5 -2 5 -5 12 -9 15 -10 4 0 32 -5 62 -9 30 -5 58
-8 63 -7 4 1 7 -3 7 -9 0 -5 5 -7 10 -4 6 4 9 1 8 -7 -2 -7 3 -12 10 -10 6 1
12 -3 12 -9 0 -6 -7 -9 -14 -6 -10 4 -13 1 -9 -9 4 -11 -1 -14 -21 -10 -14 2
-30 7 -36 11 -5 3 -10 1 -10 -5 0 -6 -5 -8 -12 -4 -7 4 -24 9 -38 10 -87 6
-100 9 -96 19 2 7 0 18 -6 26 -8 11 -9 10 -4 -3 5 -18 -3 -22 -39 -19 -11 1
-28 2 -37 2 -10 0 -18 4 -18 9 0 4 11 7 25 5 14 -1 25 2 25 8 0 6 7 2 15 -9
14 -19 14 -19 16 1 1 11 1 23 0 27 0 4 11 3 25 -3 15 -5 29 -7 32 -4 3 3 0 5
-6 5 -7 0 -12 7 -12 15 0 8 6 15 13 15 8 0 7 4 -3 10 -12 8 -12 10 5 10 12 0
16 3 9 8 -16 10 -8 111 10 140 13 21 31 8 34 -27z m-1149 0 c0 -10 -2 -11 -6
-3 -2 6 -8 10 -12 8 -4 -3 -8 1 -8 8 0 8 6 12 14 9 7 -3 13 -13 12 -22z m685
3 c-4 -17 -3 -25 3 -21 5 3 10 1 11 -6 3 -42 7 -57 14 -57 4 0 8 -5 8 -11 0
-8 -4 -8 -15 1 -8 6 -20 8 -26 4 -8 -4 -9 -3 -5 4 4 7 3 12 -3 12 -5 0 -12 -8
-14 -17 -4 -15 -5 -15 -6 -2 0 9 6 22 14 29 17 14 20 30 4 30 -5 0 -7 -4 -4
-10 3 -5 1 -10 -4 -10 -15 0 -14 6 5 46 19 41 27 44 18 8z m611 17 c3 -5 2
-12 -3 -15 -5 -3 -9 1 -9 9 0 17 3 19 12 6z m155 -45 c0 -12 -5 -7 -19 24 -11
24 -11 24 3 6 9 -11 16 -24 16 -30z m-52 -1 c-3 -3 -9 2 -12 12 -6 14 -5 15 5
6 7 -7 10 -15 7 -18z m-1343 -35 c-3 -5 -12 -10 -18 -10 -7 0 -6 4 3 10 19 12
23 12 15 0z m901 -45 c0 -25 -2 -41 -6 -36 -3 6 -11 6 -20 1 -10 -7 -11 -10
-2 -10 6 0 12 -4 12 -8 0 -5 -7 -9 -15 -9 -8 0 -12 3 -10 7 7 11 -30 8 -37 -4
-8 -13 -1 -26 15 -26 8 0 8 3 -2 9 -8 5 -9 11 -3 15 12 7 27 -12 17 -22 -10
-11 -54 -9 -48 2 4 5 -1 7 -10 3 -10 -3 -17 -2 -17 3 0 6 9 10 21 10 11 0 17
5 14 10 -3 6 0 11 7 12 41 4 69 18 62 29 -3 5 -1 9 5 9 5 0 8 8 6 18 -2 15 2
32 8 32 1 0 2 -20 3 -45z m322 20 c-3 -3 -9 2 -12 12 -6 14 -5 15 5 6 7 -7 10
-15 7 -18z m-859 -2 c0 -11 -3 -13 -6 -5 -2 6 -10 9 -15 6 -7 -4 -8 -2 -4 4
11 18 26 14 25 -5z m1461 7 c0 -5 -5 -10 -11 -10 -5 0 -7 5 -4 10 3 6 8 10 11
10 2 0 4 -4 4 -10z m-1410 -21 c0 -4 -8 -5 -17 -2 -14 5 -13 3 3 -13 18 -19
40 -12 28 8 -3 4 0 8 6 8 6 0 13 -6 16 -14 7 -17 44 -29 40 -12 -2 6 -1 8 1 4
2 -4 10 -6 16 -4 7 1 9 1 5 -1 -5 -3 -8 -9 -8 -14 0 -6 5 -7 12 -3 6 4 8 3 5
-3 -10 -16 -109 -3 -124 15 -12 15 -12 15 -7 -3 3 -12 2 -16 -3 -10 -4 6 -18
10 -31 9 -12 -1 -20 1 -17 4 2 3 -1 12 -7 21 -10 12 -8 12 8 -1 22 -19 35 -23
32 -10 -3 17 15 40 28 35 8 -3 14 -9 14 -14z m-116 2 c3 -5 -2 -15 -12 -22
-15 -12 -16 -12 -5 2 7 9 10 19 6 22 -3 4 -4 7 0 7 3 0 8 -4 11 -9z m1338 2
c-10 -4 -10 -8 0 -21 8 -9 8 -13 2 -9 -7 4 -15 0 -18 -9 -4 -9 -9 -14 -13 -11
-3 4 0 13 7 22 15 18 0 20 -19 3 -11 -10 -13 -10 -7 0 4 7 2 12 -6 12 -25 0
10 15 39 17 15 1 22 -1 15 -4z m343 -3 c3 -5 1 -10 -4 -10 -6 0 -11 5 -11 10
0 6 2 10 4 10 3 0 8 -4 11 -10z m-1335 -10 c0 -5 -7 -7 -15 -4 -8 4 -15 8 -15
10 0 2 7 4 15 4 8 0 15 -4 15 -10z m40 -12 c0 -4 -4 -8 -9 -8 -6 0 -12 4 -15
8 -3 5 1 9 9 9 8 0 15 -4 15 -9z m-40 -18 c0 9 4 9 13 2 7 -6 24 -9 39 -8 41
5 57 -9 35 -31 -13 -13 -20 -15 -25 -6 -4 6 -23 10 -44 8 -21 -2 -40 0 -43 5
-4 6 2 7 12 3 16 -6 16 -4 -2 18 -15 18 -16 20 -2 10 13 -10 17 -11 17 -1z
m728 -20 c-1 -39 8 -48 52 -52 25 -2 35 -8 34 -19 -1 -9 5 -16 12 -16 7 0 11
4 8 8 -2 4 0 10 5 14 6 3 8 -6 5 -21 -5 -25 -3 -26 12 -13 12 9 15 10 10 2 -4
-7 -2 -13 3 -13 6 0 11 -3 11 -8 0 -8 -82 -8 -96 0 -5 3 -29 6 -54 7 -25 0
-46 5 -48 10 -2 5 -14 8 -27 5 -13 -2 -26 0 -30 5 -3 6 -13 8 -23 5 -15 -5
-15 -4 1 6 9 6 14 16 11 22 -4 6 -2 8 4 4 6 -3 14 0 19 7 11 19 51 39 63 32 6
-4 7 -11 4 -17 -4 -7 -2 -8 4 -4 9 5 9 12 0 26 -10 15 -15 17 -27 7 -11 -9
-13 -9 -8 0 4 6 2 13 -5 16 -7 2 -6 3 3 2 9 -1 23 1 30 6 23 14 28 10 27 -21z
m632 20 c0 -5 -4 -10 -10 -10 -5 0 -10 5 -10 10 0 6 5 10 10 10 6 0 10 -4 10
-10z m553 3 c4 -3 -1 -15 -10 -26 -15 -17 -15 -19 -2 -15 9 4 16 1 16 -7 0
-10 -5 -11 -18 -5 -9 6 -16 18 -14 27 2 10 4 21 4 26 1 9 15 9 24 0z m-1956
-25 c-3 -8 -6 -5 -6 6 -1 11 2 17 5 13 3 -3 4 -12 1 -19z m680 7 c0 -8 -4 -12
-9 -9 -5 3 -6 10 -3 15 9 13 12 11 12 -6z m343 -22 c0 -1 -5 -5 -12 -9 -7 -5
-8 -3 -3 6 6 9 4 12 -6 8 -10 -4 -15 1 -16 12 -2 17 0 18 18 2 10 -9 19 -17
19 -19z m-1787 6 c5 -3 1 -9 -8 -12 -9 -4 -13 -3 -10 3 9 14 -8 12 -25 -2 -8
-7 -6 -3 4 10 11 12 22 19 25 15 3 -4 10 -11 14 -14z m1382 11 c3 -5 1 -10 -4
-10 -6 0 -11 5 -11 10 0 6 2 10 4 10 3 0 8 -4 11 -10z m802 -5 c0 -8 -4 -12
-9 -9 -5 3 -6 10 -3 15 9 13 12 11 12 -6z m-1131 -17 c-5 8 1 12 21 11 27 0
27 -1 6 -9 -13 -5 -23 -13 -23 -18 0 -4 -9 -8 -20 -8 -11 0 -20 1 -20 2 0 1 3
10 6 18 5 14 9 14 22 4 12 -10 14 -10 8 0z m-126 -2 c0 -2 -7 -7 -16 -10 -8
-3 -12 -2 -9 4 6 10 25 14 25 6z m1775 -24 c-3 -3 -11 0 -18 7 -9 10 -8 11 6
5 10 -3 15 -9 12 -12z m-1004 -45 c-10 -9 -11 -8 -5 6 3 10 9 15 12 12 3 -3 0
-11 -7 -18z m273 -5 c-12 -10 -26 -28 -33 -40 -10 -18 -9 -21 4 -16 9 4 15 1
15 -7 0 -11 2 -11 9 1 12 17 4 33 -11 24 -7 -4 -8 -2 -4 4 7 12 36 5 36 -9 0
-5 7 -9 16 -9 35 0 5 -25 -32 -26 -21 -1 -41 -3 -44 -4 -5 -2 -24 -3 -185 -14
-44 -3 -99 -7 -122 -9 -24 -2 -43 0 -43 4 0 10 33 17 68 14 18 -2 32 0 32 4 0
3 34 6 76 6 42 0 78 4 81 9 3 4 9 2 14 -5 6 -9 9 -10 9 -2 0 7 10 10 27 7 l26
-5 -24 20 c-13 10 -26 16 -29 11 -3 -5 -17 -7 -31 -7 -20 2 -25 6 -21 20 3 10
8 15 11 10 5 -7 15 -8 46 -4 6 1 3 6 -5 12 -13 9 -12 10 3 5 10 -3 17 0 17 7
0 8 4 7 9 -3 6 -8 7 -18 4 -23 -3 -5 0 -8 8 -5 8 3 14 11 14 19 0 9 10 14 27
14 14 0 30 3 34 8 4 4 10 7 13 7 3 -1 -3 -9 -15 -18z m887 -5 c-10 -9 -11 -8
-5 6 3 10 9 15 12 12 3 -3 0 -11 -7 -18z m-1101 -1 c-7 -7 -13 -7 -20 0 -6 6
-3 10 10 10 13 0 16 -4 10 -10z m608 0 c-2 -8 8 -24 21 -35 13 -12 21 -24 17
-28 -4 -4 -10 -3 -14 3 -9 13 -63 14 -55 1 3 -6 1 -7 -5 -3 -8 5 -10 1 -5 -10
5 -15 7 -15 15 0 5 9 13 16 19 16 5 0 4 -8 -3 -19 -6 -10 -21 -18 -34 -17 -12
0 -20 4 -17 9 5 8 -27 5 -42 -5 -6 -4 -17 -2 -25 3 -12 8 -12 12 -2 16 6 2 10
8 7 13 -3 4 2 11 10 14 13 4 13 2 5 -14 -14 -26 -13 -35 3 -21 8 6 18 7 22 3
5 -4 5 2 1 12 -5 15 -4 17 7 7 11 -9 17 -8 27 4 7 8 9 15 6 15 -4 0 -4 5 0 11
4 8 9 8 17 0 6 -6 15 -11 21 -11 6 0 5 5 -1 11 -6 6 -9 18 -6 25 7 18 15 18
11 0z m-628 -16 c9 -5 19 -5 27 1 14 12 36 2 28 -12 -7 -10 -36 -6 -75 9 -14
6 -18 11 -10 11 8 0 22 -3 30 -9z m267 4 c-3 -3 -12 -4 -19 -1 -8 3 -5 6 6 6
11 1 17 -2 13 -5z m157 -7 c4 4 4 0 0 -10 -5 -13 -2 -16 10 -11 9 3 14 9 11
13 -2 4 2 8 10 8 8 0 12 -4 9 -8 -2 -4 3 -12 11 -17 30 -16 7 -39 -42 -40 -25
-1 -51 -6 -58 -12 -7 -6 -20 -8 -29 -4 -10 4 -16 1 -16 -7 0 -7 -3 -9 -7 -6
-3 4 -12 2 -20 -4 -10 -9 -13 -8 -13 3 0 8 6 15 13 16 45 6 76 16 81 27 3 8
-2 11 -13 8 -11 -3 -18 1 -18 12 0 10 4 12 10 6 5 -5 16 -7 25 -3 11 4 14 1 9
-11 -3 -9 -2 -17 3 -17 14 0 12 43 -2 60 -11 12 -10 12 3 2 9 -6 19 -9 23 -5z
m710 -2 c-7 -18 -20 -19 -30 -3 -4 6 -3 8 4 4 6 -3 13 -2 17 4 9 15 15 12 9
-5z m-794 -38 c0 -6 -3 -7 -7 -4 -3 4 -12 2 -19 -4 -13 -10 -32 6 -20 18 3 4
6 1 6 -6 0 -7 5 -9 10 -6 6 4 8 11 5 16 -3 5 1 6 9 3 9 -3 16 -11 16 -17z
m774 2 c-3 -5 0 -9 6 -9 6 0 10 -8 8 -17 -2 -11 2 -17 10 -15 8 1 11 -2 8 -7
-3 -5 -20 -7 -38 -4 -18 2 -45 5 -60 6 -15 1 -25 4 -22 7 6 5 11 6 38 9 8 0
13 9 12 19 -2 9 1 20 7 24 14 8 38 -2 31 -13z m-2851 -13 c8 5 7 2 -1 -7 -11
-12 -14 -12 -22 1 -5 8 -10 20 -10 25 1 6 5 2 11 -8 6 -9 16 -14 22 -11z
m2558 1 c-10 -9 -11 -8 -5 6 3 10 9 15 12 12 3 -3 0 -11 -7 -18z m-134 6 c-4
-3 -3 -11 3 -17 6 -9 -2 -12 -31 -11 -21 0 -37 4 -36 10 2 6 13 10 24 10 12 0
25 3 29 8 4 4 10 7 12 7 3 0 2 -3 -1 -7z m217 -15 c-3 -5 -10 -5 -16 -2 -7 4
-8 2 -4 -5 4 -6 12 -9 17 -6 19 12 50 14 43 3 -5 -8 -1 -9 10 -5 10 4 15 3 11
-3 -9 -14 -35 -12 -35 3 0 9 -2 9 -8 0 -4 -7 -17 -11 -29 -10 -12 0 -19 5 -17
9 3 4 -2 8 -10 8 -9 0 -16 4 -16 8 0 5 13 8 29 8 17 0 28 -3 25 -8z m-1134
-18 c0 -5 -5 -10 -11 -10 -5 0 -7 5 -4 10 3 6 8 10 11 10 2 0 4 -4 4 -10z m40
0 c0 -5 -4 -10 -10 -10 -5 0 -10 5 -10 10 0 6 5 10 10 10 6 0 10 -4 10 -10z
m468 -25 c-11 -11 -48 -13 -48 -3 0 5 7 8 15 5 8 -4 17 -2 21 4 3 6 9 8 12 5
3 -3 3 -8 0 -11z m-115 -36 c-8 -8 -13 -7 -18 2 -5 8 -4 10 3 5 7 -4 12 -2 12
5 0 7 3 9 7 6 4 -4 2 -12 -4 -18z m-1855 -24 c-3 -3 -9 2 -12 12 -6 14 -5 15
5 6 7 -7 10 -15 7 -18z m2862 -5 c-6 -11 -13 -20 -16 -20 -2 0 0 9 6 20 6 11
13 20 16 20 2 0 0 -9 -6 -20z m-2782 -15 c-3 -3 -9 2 -12 12 -6 14 -5 15 5 6
7 -7 10 -15 7 -18z m-86 -13 c-9 -3 -8 -7 1 -17 7 -7 16 -10 21 -7 5 3 6 0 1
-7 -5 -9 -13 -7 -31 10 -25 24 -24 42 3 32 10 -4 12 -8 5 -11z m108 -22 c0 -5
-2 -10 -4 -10 -3 0 -8 5 -11 10 -3 6 -1 10 4 10 6 0 11 -4 11 -10z m1360 -40
c0 -5 -5 -10 -11 -10 -5 0 -7 5 -4 10 3 6 8 10 11 10 2 0 4 -4 4 -10z m-75
-30 c-3 -5 4 -6 15 -3 11 3 20 0 20 -6 0 -6 6 -11 13 -11 6 1 1 10 -12 20 -14
12 -18 20 -10 20 8 0 20 -9 26 -19 7 -11 20 -18 30 -17 10 2 12 1 6 -1 -22 -7
-14 -26 8 -20 17 5 18 3 7 -10 -11 -13 -14 -12 -30 7 -10 12 -18 18 -18 12 0
-6 7 -17 15 -25 8 -8 12 -17 10 -19 -3 -3 2 -5 10 -5 8 0 12 3 10 7 -2 3 6 12
18 19 12 8 19 10 15 6 -7 -8 22 -45 35 -45 5 0 4 6 -2 14 -11 13 -4 15 27 7 1
-1 -2 -10 -8 -21 -9 -17 -14 -18 -33 -9 -17 9 -19 9 -11 0 15 -16 48 -21 65
-10 11 7 11 9 1 9 -7 0 -10 5 -6 11 10 17 25 -12 18 -36 -4 -16 -3 -17 5 -5
10 13 11 13 12 0 1 -8 1 -18 0 -22 0 -5 4 -7 11 -5 7 1 12 -4 13 -12 0 -16 31
-30 58 -25 9 1 15 -2 11 -7 -3 -5 -10 -7 -15 -4 -5 4 -9 1 -9 -5 0 -6 -5 -8
-11 -4 -7 4 -7 -1 1 -16 11 -21 10 -22 -6 -16 -13 4 -11 0 6 -14 14 -11 30
-20 35 -20 6 0 4 4 -3 9 -11 6 -9 9 5 13 12 3 20 0 20 -8 0 -8 -3 -14 -7 -14
-6 0 -7 -22 -1 -52 0 -4 9 -4 19 -1 15 6 15 5 3 -10 -11 -14 -11 -17 0 -18 8
-1 18 -1 22 0 5 1 5 -4 1 -10 -5 -9 -2 -10 12 -5 15 6 17 5 7 -5 -10 -10 -16
-10 -25 -1 -7 7 -16 12 -22 12 -5 0 1 -9 14 -20 12 -11 27 -17 33 -13 6 3 7 1
3 -6 -4 -6 -17 -9 -29 -6 -12 2 -16 2 -9 -1 6 -3 10 -10 6 -15 -7 -12 3 -11
27 1 13 7 19 7 19 0 0 -5 -7 -10 -16 -10 -8 0 -13 -4 -9 -10 3 -5 12 -7 19 -4
13 5 31 -24 21 -34 -3 -3 -5 0 -5 7 0 7 -5 9 -12 5 -7 -4 -8 -3 -4 4 12 20 0
13 -20 -10 -12 -14 -13 -18 -3 -10 16 12 29 7 29 -10 0 -5 -5 -6 -12 -2 -7 4
-8 3 -4 -5 6 -9 11 -9 22 -1 7 7 19 10 26 7 8 -4 7 -6 -4 -6 -20 -1 -24 -16
-8 -26 6 -3 10 -1 10 4 0 6 5 11 12 11 7 0 6 -6 -4 -17 -20 -23 -13 -49 8 -32
8 7 17 9 21 5 3 -3 1 -6 -5 -6 -7 0 -12 -6 -12 -14 0 -16 27 -29 43 -20 7 3 4
-1 -5 -9 -10 -8 -14 -18 -10 -22 4 -5 1 -5 -6 -1 -7 4 -10 11 -8 15 3 4 -2 8
-10 8 -10 0 -11 -4 -5 -10 7 -7 7 -15 -2 -26 -10 -12 -9 -13 3 -6 23 14 49 13
43 -1 -2 -7 -12 -10 -21 -7 -10 3 -13 1 -7 -4 6 -4 10 -14 11 -20 3 -35 4 -38
13 -24 7 12 13 12 24 3 7 -7 16 -10 19 -7 3 3 11 -3 19 -12 13 -16 12 -17 -3
-4 -20 15 -25 2 -6 -17 9 -9 15 -9 27 1 14 10 14 10 3 -4 -10 -14 -10 -18 5
-24 10 -5 21 -7 26 -7 17 4 5 -16 -16 -25 -18 -9 -24 -8 -24 2 0 8 7 11 15 7
10 -4 13 -1 8 7 -5 7 -15 10 -23 7 -8 -3 -12 -2 -9 3 4 5 -3 7 -14 4 -26 -7
-31 -16 -18 -33 8 -12 9 -11 4 3 -4 14 -1 18 12 15 19 -4 24 -29 7 -40 -5 -4
0 -6 12 -5 12 0 20 4 18 7 -2 3 5 6 15 7 18 2 18 1 2 -16 -9 -10 -20 -16 -23
-15 -3 2 -5 -13 -4 -32 2 -28 -2 -37 -19 -44 -17 -7 -17 -9 -3 -9 19 -1 24
-21 5 -21 -10 0 -9 -3 1 -9 17 -11 -3 -25 -21 -16 -7 4 -4 -1 6 -9 11 -9 23
-16 28 -16 4 0 8 -8 7 -17 0 -11 -3 -13 -6 -5 -2 6 -10 9 -15 6 -7 -5 -8 -2
-3 7 5 8 5 11 0 7 -4 -4 -15 -2 -24 5 -14 11 -15 10 -1 -8 26 -35 37 -44 44
-37 4 3 4 -1 0 -11 -6 -17 -7 -17 -20 0 -12 17 -13 16 -11 -4 1 -13 5 -23 11
-23 5 0 -1 -8 -12 -19 -12 -10 -19 -20 -17 -23 3 -2 -5 -4 -18 -3 -12 1 -20 6
-17 11 3 5 12 8 20 6 13 -3 13 -2 0 9 -12 9 -12 10 5 4 11 -3 16 -3 12 1 -4 4
-1 14 6 22 10 13 9 14 -2 7 -11 -6 -13 -3 -9 12 3 12 0 20 -7 20 -7 0 -11 -6
-8 -13 2 -6 -1 -15 -6 -19 -6 -3 -9 -10 -6 -15 6 -10 -12 -23 -38 -27 -12 -2
-16 1 -11 9 4 7 3 8 -4 4 -9 -5 -9 -13 -1 -28 7 -13 7 -18 1 -14 -6 3 -13 2
-17 -4 -3 -5 -1 -10 6 -10 7 0 10 -2 7 -5 -8 -8 -38 6 -38 17 0 5 5 6 12 2 7
-5 8 -3 3 6 -6 9 -4 11 5 5 9 -5 11 -4 6 3 -11 18 -21 14 -36 -13 -10 -18 -16
-22 -22 -13 -4 8 -8 9 -8 2 0 -7 -29 -10 -87 -7 -49 1 -129 4 -179 6 -49 2
-95 7 -101 10 -7 4 -14 3 -17 -2 -5 -7 -41 -8 -41 -1 0 1 -45 3 -100 4 -55 1
-105 5 -112 9 -6 4 -13 0 -17 -8 -3 -8 -1 -15 4 -15 6 0 10 -7 10 -15 0 -13
-4 -13 -27 2 -27 17 -49 36 -197 173 -101 93 -203 194 -187 185 9 -5 12 -3 9
6 -3 8 -11 13 -17 12 -13 -4 -15 4 -2 12 13 7 63 -40 53 -50 -4 -5 -1 -5 6 -1
6 4 18 1 26 -6 15 -14 79 -72 114 -102 l22 -19 -5 64 c-3 35 -7 80 -10 99 -5
39 -14 132 -19 200 -2 25 -6 62 -10 82 -3 20 -2 39 3 42 4 3 7 -6 5 -19 -1
-14 1 -25 5 -25 4 0 8 -6 9 -12 2 -27 12 -124 14 -135 1 -9 7 -7 18 5 10 9 16
19 14 21 -2 2 13 29 33 60 20 31 47 76 61 101 14 25 40 69 59 98 18 29 33 54
33 56 0 3 25 45 55 94 30 50 55 93 55 96 0 6 44 74 60 94 6 6 8 13 5 13 -20 5
-33 3 -54 -8 -14 -6 -28 -10 -33 -7 -4 3 -8 0 -8 -7 0 -7 -3 -10 -6 -6 -4 3
-22 0 -42 -9 -19 -8 -37 -12 -40 -10 -5 6 62 34 93 40 13 2 32 8 42 13 10 5
25 9 33 8 8 -1 21 4 29 9 12 9 13 8 6 -4 -4 -8 2 -5 14 7 19 20 58 22 46 3z
m92 4 c-3 -3 -12 -4 -19 -1 -8 3 -5 6 6 6 11 1 17 -2 13 -5z m-1460 -31 c0
-16 -1 -20 -4 -10 -2 9 -9 15 -14 12 -5 -3 -6 1 -3 9 9 25 20 19 21 -11z
m1088 -52 c-9 -8 -36 -10 -30 -2 2 4 11 8 20 8 8 0 13 -3 10 -6z m549 -41 c6
0 4 -5 -4 -10 -13 -8 -13 -10 2 -10 9 0 20 5 23 10 10 16 24 2 20 -20 -2 -11
2 -20 8 -20 8 0 7 -3 -2 -9 -16 -10 -53 -2 -45 10 3 5 9 7 14 4 5 -3 11 -1 14
4 4 5 -2 8 -11 6 -21 -3 -45 14 -37 26 3 5 1 9 -3 9 -5 0 -9 10 -10 23 l-1 22
10 -22 c6 -13 16 -23 22 -23z m-1542 -94 c7 4 8 2 4 -5 -9 -13 -26 -5 -25 12
0 9 2 8 6 -1 2 -6 10 -9 15 -6z m1625 -11 c0 -8 -3 -13 -5 -10 -3 3 -13 -2
-22 -10 -14 -13 -16 -12 -17 8 0 12 1 16 4 10 3 -10 8 -9 20 2 18 19 20 19 20
0z m-1612 -15 c-3 -5 -12 -10 -18 -10 -7 0 -6 4 3 10 19 12 23 12 15 0z m1632
-63 c0 -8 -6 -14 -14 -14 -9 0 -10 4 -2 14 6 7 12 13 14 13 1 0 2 -6 2 -13z
m-1575 -62 c-2 -10 1 -14 7 -10 6 3 11 1 11 -4 0 -18 -19 -12 -30 8 -13 26
-13 34 3 28 6 -2 11 -12 9 -22z m74 -131 c-4 -12 -2 -15 9 -10 8 3 15 1 15 -4
0 -16 -26 -11 -41 7 -10 11 -10 14 -1 9 6 -4 12 -2 12 3 0 6 3 11 6 11 3 0 3
-7 0 -16z m115 -177 c-7 -7 -14 -8 -21 -1 -6 6 -2 10 12 11 16 2 18 -1 9 -10z
m1538 -18 c-19 -11 -24 -3 -8 14 8 9 16 11 18 5 2 -6 -3 -14 -10 -19z m48 -5
c-3 -3 -12 -4 -19 -1 -8 3 -5 6 6 6 11 1 17 -2 13 -5z m-1473 -52 c3 -5 -1 -9
-9 -9 -8 0 -15 4 -15 9 0 4 4 8 9 8 6 0 12 -4 15 -8z m1531 -1 c3 -5 2 -12 -3
-15 -5 -3 -9 1 -9 9 0 17 3 19 12 6z m-1525 -41 c0 -5 -4 -10 -10 -10 -5 0
-10 5 -10 10 0 6 5 10 10 10 6 0 10 -4 10 -10z m-11 -24 c6 -4 9 -15 7 -24 -3
-10 -1 -24 4 -32 7 -11 3 -20 -13 -33 -20 -17 -20 -18 -2 -12 43 15 58 15 23
-1 -21 -9 -35 -20 -32 -25 3 -5 11 -6 17 -3 8 5 8 3 0 -6 -11 -12 -15 -11 -27
5 -7 10 -12 31 -11 46 2 19 -6 35 -21 50 -17 16 -21 26 -13 35 10 13 47 13 68
0z m36 5 c-3 -5 -1 -12 5 -16 5 -3 10 -11 10 -18 0 -6 -7 -2 -15 9 -17 23 -19
34 -4 34 5 0 8 -4 4 -9z m36 -34 c-10 -9 -11 -8 -5 6 3 10 9 15 12 12 3 -3 0
-11 -7 -18z m-13 -21 c14 5 14 3 -2 -6 -15 -10 -20 -9 -27 1 -5 8 -9 19 -9 24
1 6 5 2 11 -7 5 -10 17 -15 27 -12z m1479 9 c0 -8 -4 -12 -9 -9 -4 3 -8 0 -8
-5 0 -6 5 -11 10 -11 6 0 10 -5 10 -10 0 -6 -8 -5 -20 2 -18 11 -18 14 -3 30
19 22 20 22 20 3z m-1427 -15 c0 -5 -5 -10 -11 -10 -5 0 -7 5 -4 10 3 6 8 10
11 10 2 0 4 -4 4 -10z m-30 -20 c0 -5 -4 -10 -10 -10 -5 0 -10 5 -10 10 0 6 5
10 10 10 6 0 10 -4 10 -10z m37 -16 c-3 -3 -12 -4 -19 -1 -8 3 -5 6 6 6 11 1
17 -2 13 -5z m1403 -10 c0 -9 5 -12 12 -8 7 4 8 3 4 -4 -4 -6 -14 -8 -24 -5
-15 6 -15 5 -3 -10 8 -10 9 -17 3 -17 -6 0 -9 -8 -7 -18 2 -11 -3 -19 -11 -19
-8 0 -10 5 -5 11 4 6 7 21 6 34 -1 13 2 25 7 28 4 3 6 10 3 15 -4 5 -1 9 4 9
6 0 11 -7 11 -16z m-1322 -19 c-3 -3 -9 2 -12 12 -6 14 -5 15 5 6 7 -7 10 -15
7 -18z m-152 3 c4 -7 3 -8 -4 -4 -7 4 -12 2 -12 -5 0 -7 -3 -10 -6 -6 -6 5 3
27 11 27 2 0 7 -5 11 -12z m94 -15 c0 -5 -5 -15 -10 -23 -7 -12 -9 -10 -7 8 1
19 17 33 17 15z m85 -14 c-4 -5 -1 -9 4 -9 6 0 11 -5 11 -11 0 -5 -5 -7 -12
-3 -7 4 -8 3 -4 -5 4 -6 11 -9 15 -6 5 2 17 -5 27 -17 17 -19 17 -21 2 -15
-10 4 -18 4 -18 1 0 -2 12 -9 26 -15 15 -5 24 -12 21 -16 -3 -3 4 -14 16 -24
12 -10 18 -18 13 -19 -5 0 -1 -9 9 -19 16 -19 16 -20 -3 -18 -11 0 -19 4 -17
7 2 3 -7 14 -20 24 -14 11 -22 25 -20 37 2 10 -1 18 -7 16 -5 -1 -15 7 -21 17
-7 11 -22 31 -34 45 -16 18 -19 28 -11 38 11 14 32 7 23 -8z m-147 -34 c-3 -3
-9 2 -12 12 -6 14 -5 15 5 6 7 -7 10 -15 7 -18z m1572 11 c0 -2 -8 -10 -17
-17 -16 -13 -17 -12 -4 4 13 16 21 21 21 13z m-1580 -41 c5 3 12 0 16 -6 4 -8
3 -9 -4 -5 -7 4 -12 1 -12 -6 0 -9 -3 -9 -10 2 -5 8 -9 20 -9 25 0 6 3 4 6 -3
2 -6 9 -10 13 -7z m-26 -78 c0 -15 3 -27 7 -27 4 0 9 -9 12 -20 5 -21 29 -29
25 -8 -2 7 7 13 20 14 19 1 19 1 2 -3 -11 -2 -18 -8 -15 -13 9 -14 -16 -23
-28 -11 -18 18 -28 13 -15 -8 7 -11 16 -17 22 -14 5 4 6 1 1 -7 -6 -10 -13 -6
-29 16 -12 16 -21 37 -21 47 0 10 -6 22 -14 26 -11 7 -9 10 9 16 18 6 20 9 9
17 -12 8 -11 9 1 5 9 -2 15 -15 14 -30z m56 5 c0 -5 -7 -17 -15 -28 -14 -18
-14 -17 -4 9 12 27 19 34 19 19z m1293 -37 c4 -8 3 -16 -1 -19 -4 -3 -9 4 -9
15 -2 23 3 25 10 4z m-1237 -20 c3 -17 -23 -28 -32 -13 -4 7 -3 8 4 4 11 -7
17 7 12 29 -1 6 2 6 6 2 4 -4 9 -14 10 -22z m1468 9 c3 -8 2 -12 -4 -9 -6 3
-10 10 -10 16 0 14 7 11 14 -7z m-1258 -15 c3 -6 1 -16 -5 -22 -9 -9 -10 -7
-5 7 5 13 4 17 -4 12 -7 -4 -12 -2 -12 3 0 14 17 14 26 0z m1056 4 c-6 -2 -9
-10 -6 -15 4 -7 2 -8 -5 -4 -13 9 -5 26 12 25 9 0 8 -2 -1 -6z m202 -29 c3 -8
2 -12 -4 -9 -6 3 -10 10 -10 16 0 14 7 11 14 -7z m-964 -9 c0 -8 -4 -15 -10
-15 -5 0 -7 7 -4 15 4 8 8 15 10 15 2 0 4 -7 4 -15z m-495 -13 c-3 -3 -11 0
-18 7 -9 10 -8 11 6 5 10 -3 15 -9 12 -12z m-28 -7 c5 -4 2 -5 -4 -1 -14 8
-17 -4 -5 -20 4 -5 0 -1 -10 8 -18 20 -33 24 -22 6 4 -7 3 -8 -5 -4 -6 4 -9
12 -6 17 7 10 41 7 52 -6z m254 -8 c-10 -9 -11 -8 -5 6 3 10 9 15 12 12 3 -3
0 -11 -7 -18z m-316 -7 c3 -5 2 -10 -4 -10 -5 0 -13 5 -16 10 -3 6 -2 10 4 10
5 0 13 -4 16 -10z m105 6 c0 -3 -4 -8 -10 -11 -5 -3 -10 -1 -10 4 0 6 5 11 10
11 6 0 10 -2 10 -4z m37 -10 c0 -8 -6 -12 -15 -8 -10 3 -13 1 -8 -6 9 -15 -14
-26 -27 -13 -9 9 -7 10 7 5 13 -5 17 -4 12 4 -5 8 10 25 30 32 0 0 1 -6 1 -14z
m25 -37 c2 -2 1 -3 -1 -2 -2 2 -10 -5 -18 -15 -12 -16 -13 -16 -6 2 5 14 3 17
-7 11 -8 -5 -11 -4 -7 3 7 10 33 11 39 1z m-82 -13 c0 -2 -7 -7 -16 -10 -8 -3
-12 -2 -9 4 6 10 25 14 25 6z m94 -21 c-4 -8 -11 -12 -16 -9 -6 4 -5 10 3 15
19 12 19 11 13 -6z m-40 -31 c3 -8 2 -12 -4 -9 -6 3 -10 10 -10 16 0 14 7 11
14 -7z m82 -16 c3 -4 -1 -5 -10 -4 -8 1 -18 5 -22 8 -3 4 1 5 10 4 8 -1 18 -5
22 -8z m4 -23 c0 -2 -9 -9 -20 -15 -12 -6 -20 -7 -20 -1 0 5 8 12 18 14 9 3
18 5 20 6 1 0 2 -1 2 -4z m-55 -15 c-3 -5 -12 -10 -18 -10 -7 0 -6 4 3 10 19
12 23 12 15 0z m-47 -45 c-3 -3 -9 2 -12 12 -6 14 -5 15 5 6 7 -7 10 -15 7
-18z m119 10 c0 -8 -4 -15 -9 -15 -10 0 -11 14 -1 23 9 10 10 9 10 -8z m-154
-27 c-4 -19 -3 -20 6 -8 6 8 11 10 11 4 0 -18 -13 -24 -27 -13 -10 9 -10 15
-2 25 16 19 18 18 12 -8z m181 4 c3 -5 -1 -9 -9 -9 -8 0 -12 4 -9 9 3 4 7 8 9
8 2 0 6 -4 9 -8z m6 -26 c0 -2 -7 -7 -16 -10 -8 -3 -12 -2 -9 4 6 10 25 14 25
6z m17 -33 c1 -22 -1 -24 -8 -10 -6 9 -7 22 -4 27 9 14 10 13 12 -17z m-117
-37 c0 -2 -8 -10 -17 -17 -16 -13 -17 -12 -4 4 13 16 21 21 21 13z m146 -8 c4
-7 4 -10 -1 -6 -4 4 -14 3 -22 -4 -11 -8 -12 -7 -7 6 7 19 20 21 30 4z m-136
-78 c0 -5 -2 -10 -4 -10 -3 0 -8 5 -11 10 -3 6 -1 10 4 10 6 0 11 -4 11 -10z
m30 -64 c0 -2 -7 -7 -16 -10 -8 -3 -12 -2 -9 4 6 10 25 14 25 6z m10 -20 c0
-2 -7 -7 -16 -10 -8 -3 -12 -2 -9 4 6 10 25 14 25 6z"/>
<path d="M656 3593 c-6 -14 -5 -15 5 -6 7 7 10 15 7 18 -3 3 -9 -2 -12 -12z"/>
<path d="M636 3558 c3 -5 10 -6 15 -3 13 9 11 12 -6 12 -8 0 -12 -4 -9 -9z"/>
<path d="M639 3518 c-5 -18 -6 -38 -1 -34 7 8 12 36 6 36 -2 0 -4 -1 -5 -2z"/>
<path d="M595 3440 c-3 -6 1 -7 9 -4 18 7 21 14 7 14 -6 0 -13 -4 -16 -10z"/>
<path d="M680 3446 c0 -2 8 -10 18 -17 15 -13 16 -12 3 4 -13 16 -21 21 -21
13z"/>
<path d="M1735 3320 c3 -5 14 -10 23 -10 13 0 14 -2 4 -9 -11 -7 -11 -9 1 -14
19 -7 16 21 -4 34 -19 12 -32 11 -24 -1z"/>
<path d="M1215 3360 c3 -5 8 -10 11 -10 2 0 4 5 4 10 0 6 -5 10 -11 10 -5 0
-7 -4 -4 -10z"/>
<path d="M1276 3361 c-4 -5 -2 -12 3 -15 5 -4 12 -2 15 3 4 5 2 12 -3 15 -5 4
-12 2 -15 -3z"/>
<path d="M1849 3304 c-12 -13 -16 -24 -10 -28 5 -4 12 -2 16 4 3 5 3 10 0 10
-3 0 0 6 7 14 7 8 16 12 20 10 4 -2 9 -1 12 4 11 19 -25 7 -45 -14z"/>
<path d="M2326 3249 c2 -4 -3 -15 -12 -23 -8 -9 -11 -16 -6 -16 5 0 17 11 25
23 12 19 13 24 2 24 -8 0 -12 -4 -9 -8z"/>
<path d="M2275 3241 c-3 -5 -2 -12 3 -15 5 -3 9 1 9 9 0 17 -3 19 -12 6z"/>
<path d="M2387 3199 c7 -7 15 -10 18 -7 3 3 -2 9 -12 12 -14 6 -15 5 -6 -5z"/>
<path d="M2585 3210 c-10 -17 12 -37 25 -24 8 8 6 15 -4 23 -10 9 -16 9 -21 1z
m20 -10 c3 -5 1 -10 -4 -10 -6 0 -11 5 -11 10 0 6 2 10 4 10 3 0 8 -4 11 -10z"/>
<path d="M3229 3203 c-5 -38 -3 -46 12 -49 19 -2 19 11 1 41 -6 11 -12 14 -13
8z m16 -22 c3 -5 2 -12 -3 -15 -5 -3 -9 1 -9 9 0 17 3 19 12 6z"/>
<path d="M1838 2923 c7 -3 16 -2 19 1 4 3 -2 6 -13 5 -11 0 -14 -3 -6 -6z"/>
<path d="M1950 2880 c0 -5 5 -10 11 -10 5 0 7 5 4 10 -3 6 -8 10 -11 10 -2 0
-4 -4 -4 -10z"/>
<path d="M2150 2631 c0 -6 4 -13 10 -16 6 -3 7 1 4 9 -7 18 -14 21 -14 7z"/>
<path d="M2155 2590 c-3 -6 1 -7 9 -4 18 7 21 14 7 14 -6 0 -13 -4 -16 -10z"/>
<path d="M2213 2485 c0 -8 4 -12 9 -9 5 3 6 10 3 15 -9 13 -12 11 -12 -6z"/>
<path d="M2270 2360 c0 -6 7 -10 15 -10 8 0 15 2 15 4 0 2 -7 6 -15 10 -8 3
-15 1 -15 -4z"/>
<path d="M2367 2223 c4 -10 2 -14 -4 -10 -5 3 -10 0 -10 -8 0 -8 4 -12 9 -9 4
3 8 1 8 -5 0 -5 8 -9 19 -8 18 1 18 2 -2 29 -24 32 -29 35 -20 11z"/>
<path d="M2310 1860 c0 -5 5 -10 10 -10 6 0 10 5 10 10 0 6 -4 10 -10 10 -5 0
-10 -4 -10 -10z"/>
<path d="M2220 1820 c-9 -6 -10 -10 -3 -10 6 0 15 5 18 10 8 12 4 12 -15 0z"/>
<path d="M865 2130 c-3 -5 6 -17 20 -28 16 -13 23 -27 20 -40 -3 -19 -1 -20
15 -10 18 12 17 38 -2 38 -6 0 -5 7 2 15 7 9 11 17 9 20 -9 9 -59 13 -64 5z
m40 -12 c4 -3 2 -9 -3 -12 -5 -3 -15 1 -21 8 -10 11 -9 14 3 12 9 -1 18 -5 21
-8z"/>
<path d="M1135 1991 c-3 -5 -2 -12 3 -15 5 -3 9 1 9 9 0 17 -3 19 -12 6z"/>
<path d="M1220 1860 c8 -5 20 -10 25 -10 6 0 3 5 -5 10 -8 5 -19 10 -25 10 -5
0 -3 -5 5 -10z"/>
<path d="M955 1840 c3 -5 8 -10 11 -10 2 0 4 5 4 10 0 6 -5 10 -11 10 -5 0 -7
-4 -4 -10z"/>
<path d="M963 1805 c0 -8 4 -12 9 -9 5 3 6 10 3 15 -9 13 -12 11 -12 -6z"/>
<path d="M436 3817 c3 -10 9 -15 12 -12 3 3 0 11 -7 18 -10 9 -11 8 -5 -6z"/>
<path d="M510 3820 c0 -5 5 -10 10 -10 6 0 10 5 10 10 0 6 -4 10 -10 10 -5 0
-10 -4 -10 -10z"/>
<path d="M1416 3747 c3 -10 9 -15 12 -12 3 3 0 11 -7 18 -10 9 -11 8 -5 -6z"/>
<path d="M900 3679 c0 -5 5 -7 10 -4 6 3 10 8 10 11 0 2 -4 4 -10 4 -5 0 -10
-5 -10 -11z"/>
<path d="M1206 3658 c3 -4 0 -8 -7 -8 -7 0 -10 -2 -7 -5 7 -7 38 5 38 14 0 4
-7 8 -15 8 -8 0 -12 -4 -9 -9z"/>
<path d="M2670 3561 c0 -14 1 -14 10 -1 7 11 10 12 10 2 0 -9 7 -11 19 -7 12
4 23 0 28 -9 7 -13 10 -12 21 5 8 12 9 18 3 14 -6 -3 -11 -2 -11 2 0 5 -18 9
-40 9 -30 0 -40 -4 -40 -15z"/>
<path d="M470 3490 c0 -5 5 -10 11 -10 5 0 7 5 4 10 -3 6 -8 10 -11 10 -2 0
-4 -4 -4 -10z"/>
<path d="M2359 3493 c0 -5 -2 -16 -4 -26 -2 -11 -1 -16 3 -13 8 8 14 46 7 46
-3 0 -5 -3 -6 -7z"/>
<path d="M470 3459 c0 -5 4 -8 9 -5 5 4 11 0 14 -6 2 -7 -5 -19 -17 -26 -19
-11 -19 -12 -2 -10 10 2 21 -2 23 -8 5 -14 -28 -15 -45 -1 -7 5 -15 7 -19 3
-3 -3 -1 -6 6 -6 7 0 10 -4 6 -9 -9 -15 14 -24 29 -12 10 9 15 8 19 -4 7 -18
34 -10 34 10 0 10 -4 12 -12 5 -9 -7 -11 -1 -10 23 3 32 -9 57 -26 57 -5 0 -9
-5 -9 -11z"/>
<path d="M427 3443 c-3 -5 6 -9 20 -10 19 -1 22 1 12 8 -17 11 -26 11 -32 2z"/>
<path d="M2782 3417 c-6 -7 -7 -18 -3 -26 7 -11 11 -9 20 7 13 24 -1 39 -17
19z"/>
<path d="M3260 3415 c13 -16 30 -11 30 8 0 7 -4 6 -10 -3 -6 -10 -10 -11 -10
-2 0 6 -5 12 -11 12 -8 0 -8 -5 1 -15z"/>
<path d="M336 3375 c-9 -26 -7 -32 5 -12 6 10 9 21 6 23 -2 3 -7 -2 -11 -11z"/>
<path d="M334 3280 c0 -10 6 -16 13 -13 7 3 13 9 13 13 0 4 -6 10 -13 13 -7 3
-13 -3 -13 -13z"/>
<path d="M3390 3140 c0 -5 5 -10 11 -10 5 0 7 5 4 10 -3 6 -8 10 -11 10 -2 0
-4 -4 -4 -10z"/>
<path d="M390 2960 c0 -5 5 -10 11 -10 5 0 7 5 4 10 -3 6 -8 10 -11 10 -2 0
-4 -4 -4 -10z"/>
<path d="M486 2815 c-3 -8 0 -17 6 -21 6 -4 8 -3 4 4 -3 5 -1 12 6 14 8 3 9 6
1 11 -6 4 -13 0 -17 -8z"/>
<path d="M570 2671 c0 -6 4 -13 10 -16 6 -3 7 1 4 9 -7 18 -14 21 -14 7z"/>
<path d="M675 2380 c3 -5 8 -10 11 -10 2 0 4 5 4 10 0 6 -5 10 -11 10 -5 0 -7
-4 -4 -10z"/>
<path d="M713 2327 c0 -8 6 -14 14 -14 9 0 10 4 2 14 -6 7 -12 13 -14 13 -1 0
-2 -6 -2 -13z"/>
<path d="M815 2230 c-3 -6 4 -19 17 -30 13 -11 18 -19 13 -20 -6 0 -17 6 -24
13 -10 10 -11 9 -6 -5 4 -10 14 -18 22 -18 9 0 11 -5 7 -12 -4 -7 2 -5 13 5
11 9 23 15 26 12 4 -3 4 -2 1 3 -3 4 -9 7 -13 7 -10 0 -42 32 -41 40 3 13 -8
16 -15 5z"/>
<path d="M855 1980 c-2 -3 5 -7 16 -7 10 -1 19 2 19 6 0 9 -29 10 -35 1z"/>
<path d="M914 1816 c1 -8 5 -18 8 -22 4 -3 5 1 4 10 -1 8 -5 18 -8 22 -4 3 -5
-1 -4 -10z"/>
<path d="M970 1680 c0 -5 5 -10 11 -10 5 0 7 5 4 10 -3 6 -8 10 -11 10 -2 0
-4 -4 -4 -10z"/>
<path d="M1005 1680 c-8 -13 15 -24 27 -12 6 6 4 11 -6 15 -8 3 -18 2 -21 -3z"/>
<path d="M1036 1537 c3 -10 9 -15 12 -12 3 3 0 11 -7 18 -10 9 -11 8 -5 -6z"/>
<path d="M1070 1421 c0 -6 4 -13 10 -16 6 -3 7 1 4 9 -7 18 -14 21 -14 7z"/>
<path d="M1107 1366 c-3 -8 0 -13 6 -12 15 2 22 19 9 24 -5 1 -12 -4 -15 -12z"/>
<path d="M1137 1285 c-4 -8 -3 -16 1 -19 4 -3 9 4 9 15 2 23 -3 25 -10 4z"/>
<path d="M1198 1177 c12 -7 19 -16 16 -20 -4 -4 -1 -7 7 -7 12 0 11 -2 -1 -11
-13 -9 -13 -10 0 -6 32 8 2 56 -35 56 -5 0 0 -5 13 -12z"/>
<path d="M1265 1033 c-16 -12 -16 -14 -3 -10 10 3 20 2 23 -3 4 -6 0 -10 -7
-10 -9 0 -9 -3 2 -10 11 -7 11 -10 2 -10 -7 0 -10 -5 -7 -11 9 -13 15 -7 20
19 2 12 -1 24 -6 27 -5 4 -7 11 -4 16 9 13 3 11 -20 -8z"/>
<path d="M1295 959 c-4 -6 -5 -12 -2 -15 2 -3 7 2 10 11 7 17 1 20 -8 4z"/>
<path d="M1401 690 c14 -31 19 -36 19 -24 0 6 -7 19 -16 30 -14 18 -14 18 -3
-6z"/>
<path d="M1470 555 c0 -8 5 -15 11 -15 5 0 7 -5 4 -10 -4 -6 -11 -7 -17 -4 -7
4 -8 2 -4 -5 6 -9 11 -9 22 0 10 8 11 15 4 24 -5 6 -7 15 -3 18 3 4 1 7 -5 7
-7 0 -12 -7 -12 -15z"/>
<path d="M1665 540 c-3 -5 -1 -10 4 -10 6 0 11 5 11 10 0 6 -2 10 -4 10 -3 0
-8 -4 -11 -10z"/>
<path d="M2169 455 c4 -27 2 -29 -12 -16 -9 7 -14 18 -10 24 3 6 1 7 -6 3 -12
-8 -1 -30 24 -48 6 -5 5 -8 -4 -8 -10 0 -11 -3 -2 -14 10 -12 9 -14 -6 -11
-10 2 -19 4 -20 5 -4 3 -20 7 -33 9 -16 2 -12 18 5 18 8 0 11 -5 8 -11 -4 -6
0 -5 9 1 8 7 19 9 23 5 5 -4 5 -1 1 6 -4 7 -12 10 -17 7 -5 -4 -9 0 -9 7 0 9
-3 9 -10 -2 -8 -13 -14 -8 -12 11 0 3 -17 5 -39 4 -32 -1 -39 2 -34 14 4 12 1
11 -9 -2 -8 -10 -18 -18 -23 -18 -4 1 -8 -7 -8 -17 -1 -9 -6 -16 -13 -14 -9 1
-8 -7 4 -30 l16 -33 -26 29 c-14 16 -26 24 -26 18 0 -7 -18 -12 -45 -12 -25 0
-44 -3 -44 -7 5 -31 -3 -64 -13 -60 -7 2 -12 10 -10 16 1 7 -2 10 -7 7 -11 -7
-9 -32 4 -43 4 -5 4 -1 0 7 -8 13 -6 13 8 1 9 -7 14 -17 11 -23 -3 -5 -12 -4
-20 3 -17 14 -19 -2 -2 -19 9 -9 9 -12 0 -12 -7 0 -13 3 -13 8 -1 4 -3 23 -5
42 -8 77 -10 80 -62 80 -52 0 -78 -12 -67 -29 4 -7 2 -17 -3 -24 -15 -18 -15
-29 0 -39 10 -8 9 -9 -4 -5 -9 3 -22 -1 -30 -10 -11 -14 -10 -15 12 -10 14 4
19 4 12 1 -10 -5 -9 -9 5 -20 17 -13 17 -14 0 -8 -10 4 -17 3 -16 -2 1 -5 1
-16 0 -24 -1 -12 -4 -12 -12 3 -8 13 -14 15 -29 7 -14 -7 -18 -6 -16 5 1 8 5
18 9 21 15 15 6 26 -10 13 -16 -13 -17 -12 -4 3 7 10 18 15 23 12 12 -8 49 26
41 38 -3 6 1 14 8 19 10 6 11 9 2 9 -7 0 -13 9 -13 20 0 16 -7 20 -35 20 -30
0 -35 3 -35 23 0 28 -15 53 -24 39 -4 -6 -16 -9 -27 -7 -15 3 -26 -5 -40 -30
-11 -18 -35 -42 -53 -53 l-32 -19 -2 23 c-1 13 3 26 8 29 6 3 10 16 10 29 0
51 -175 67 -230 21 -8 -7 -24 -15 -35 -17 -11 -2 -19 -9 -18 -14 1 -6 -5 -11
-13 -11 -10 0 -11 4 -4 11 5 5 10 17 10 25 -1 13 -2 13 -11 -1 -5 -10 -15 -18
-21 -18 -7 0 -6 6 2 15 7 9 10 18 6 22 -3 3 -6 1 -6 -5 0 -7 -5 -12 -11 -12
-5 0 -7 6 -3 13 4 6 -4 3 -17 -9 -25 -22 -75 -31 -63 -12 4 7 2 8 -5 4 -6 -4
-9 -11 -6 -16 5 -9 -23 -30 -37 -27 -3 1 -10 -1 -13 -5 -4 -4 5 -5 20 -2 22 4
26 2 18 -8 -18 -24 -23 -47 -9 -42 8 3 17 1 21 -5 4 -7 0 -8 -10 -5 -17 7 -18
-16 -1 -28 6 -4 5 -18 -3 -35 -10 -23 -10 -26 0 -16 7 7 18 13 24 13 5 0 4 -4
-3 -9 -20 -12 -22 -44 -3 -65 15 -18 15 -19 -2 -13 -11 4 -24 1 -32 -6 -11
-11 -10 -15 5 -25 16 -10 18 -9 15 7 -2 12 2 18 12 17 10 0 17 8 18 21 1 15
-3 20 -14 16 -14 -4 -14 -4 -1 6 11 8 12 11 2 11 -7 0 -10 5 -6 11 5 8 9 7 16
-4 4 -9 17 -14 28 -12 12 2 18 0 15 -6 -4 -5 -11 -7 -16 -4 -5 4 -9 2 -9 -3 0
-17 13 -21 34 -10 20 10 20 9 -2 -11 -12 -12 -20 -26 -17 -32 4 -5 1 -9 -5 -9
-7 0 -9 8 -4 22 6 20 5 21 -9 9 -12 -10 -14 -18 -7 -31 7 -13 7 -21 0 -25 -6
-4 -10 -3 -9 2 3 18 -2 33 -10 33 -6 0 -8 -9 -6 -20 3 -17 1 -18 -14 -10 -14
7 -23 5 -35 -9 -9 -9 -16 -22 -16 -27 0 -5 5 -1 11 9 6 9 15 15 20 11 6 -4 3
-14 -8 -27 -9 -12 -11 -17 -4 -10 12 10 18 8 33 -9 10 -12 18 -16 18 -11 0 6
8 14 18 18 14 5 15 4 5 -6 -16 -16 -17 -29 -2 -29 5 0 7 4 4 10 -6 10 14 15
49 11 11 -1 22 3 25 8 3 5 13 2 21 -7 13 -14 12 -15 -3 -9 -9 3 -19 2 -23 -4
-4 -6 -11 -6 -20 2 -12 10 -17 9 -27 0 -9 -10 -8 -11 7 -5 13 5 17 4 13 -3 -8
-12 11 -12 31 0 12 8 16 2 13 -18 -1 -6 6 -1 14 10 9 11 24 19 33 17 14 -2 15
-1 2 7 -8 5 -18 7 -22 5 -4 -3 -8 -1 -8 4 0 14 47 31 72 27 13 -3 47 -6 77 -6
37 -1 59 -7 72 -20 10 -10 15 -20 11 -22 -4 -2 -1 -2 6 0 7 1 22 -2 33 -8 17
-9 21 -7 26 10 5 18 8 19 21 9 10 -8 13 -9 9 -1 -4 6 -1 14 5 17 7 2 2 3 -11
2 -14 -2 -27 -10 -30 -19 -6 -15 -9 -15 -36 3 -17 11 -25 20 -18 20 6 0 15 -4
18 -10 3 -5 11 -10 17 -10 7 0 7 4 0 13 -6 7 -7 18 -3 26 6 9 11 10 15 2 4 -6
2 -11 -4 -11 -6 0 -8 -5 -5 -10 5 -8 11 -8 19 -1 7 6 16 8 19 4 4 -3 7 1 7 11
0 9 -4 15 -9 12 -5 -3 -15 2 -22 12 -13 16 -13 16 5 2 18 -14 18 -13 12 8 -5
14 -3 22 4 22 6 0 8 5 5 10 -5 8 -11 7 -21 -1 -12 -10 -13 -9 -8 5 4 10 12 15
19 13 6 -3 12 1 12 8 0 7 -6 11 -14 8 -7 -3 -13 0 -13 6 0 6 5 11 11 11 6 0 7
5 2 12 -4 7 -8 20 -8 28 0 8 -4 21 -8 28 -5 7 -4 12 2 12 6 0 11 -4 11 -10 0
-5 5 -10 11 -10 5 0 8 4 4 9 -3 5 -1 12 3 15 5 3 8 -6 8 -20 -1 -14 -8 -29
-16 -34 -13 -8 -13 -10 1 -10 12 0 16 -9 14 -32 -1 -18 2 -38 7 -45 5 -6 5
-14 -2 -18 -14 -9 -13 -21 6 -39 8 -9 21 -13 27 -9 17 11 38 13 32 3 -3 -5 -1
-11 5 -15 18 -11 12 -35 -7 -29 -15 5 -15 4 -3 -4 21 -15 32 -4 26 27 -3 14
-3 20 0 13 5 -10 9 -10 22 0 13 11 14 10 4 -9 -12 -21 1 -44 15 -29 3 3 12 1
20 -6 11 -8 12 -7 7 6 -4 11 -13 15 -27 10 -17 -5 -18 -4 -6 9 14 15 39 12 39
-4 0 -4 9 -13 20 -19 16 -9 18 -8 14 5 -3 8 -10 12 -15 9 -5 -3 -9 0 -9 6 0 6
8 10 18 8 9 -2 16 2 15 8 -1 6 4 11 12 11 8 0 12 -4 9 -8 -2 -4 8 -7 23 -5 18
1 27 7 25 16 -2 10 0 11 10 3 13 -11 71 -9 90 3 7 5 8 2 4 -7 -5 -10 -4 -10 6
1 11 13 16 12 38 -9 l25 -25 -26 16 c-19 12 -26 13 -26 4 0 -7 5 -13 11 -14 6
0 21 -3 34 -6 12 -3 20 -1 17 4 -3 4 1 10 7 13 18 5 48 -3 48 -14 0 -11 -23
-7 -32 6 -5 6 -8 3 -8 -6 0 -20 26 -33 36 -18 3 6 11 8 17 6 16 -6 47 11 47
25 0 6 -8 4 -19 -6 -17 -16 -19 -16 -25 0 -4 9 -4 19 -1 22 3 3 5 0 5 -6 0 -7
5 -12 11 -12 5 0 8 4 5 9 -4 5 1 8 10 7 8 -1 19 -8 23 -15 6 -10 10 -9 14 3 6
16 37 23 37 9 0 -5 10 -19 21 -33 l20 -25 -16 32 c-17 35 -10 44 11 15 12 -16
12 -16 11 3 -1 11 3 20 8 20 6 0 16 4 23 8 8 6 12 4 10 -5 -2 -7 3 -12 10 -10
8 1 11 -2 7 -8 -3 -6 -11 -7 -17 -4 -7 4 -8 2 -4 -4 4 -6 13 -9 21 -5 11 4 14
0 9 -13 -5 -18 -5 -18 6 -1 8 13 15 15 30 7 13 -7 21 -7 26 2 4 7 3 8 -4 4 -7
-4 -12 -2 -12 4 0 6 -4 8 -10 5 -5 -3 -10 -2 -10 3 0 16 27 21 40 9 7 -7 10
-7 7 -1 -3 6 8 18 26 28 l32 17 -22 -19 c-19 -17 -20 -21 -7 -26 8 -3 13 -2
10 3 -3 5 1 11 9 15 8 3 17 1 20 -5 4 -5 12 -8 18 -7 7 1 22 -3 34 -10 14 -8
24 -9 28 -2 3 5 11 10 18 10 6 0 3 -6 -8 -13 -10 -8 -15 -19 -11 -25 4 -7 2
-12 -5 -12 -7 0 -9 -3 -6 -6 4 -4 13 -1 22 6 8 7 21 10 30 7 8 -4 21 0 29 8 7
8 17 11 21 7 5 -4 5 -1 1 6 -6 11 -11 10 -26 -3 -15 -14 -18 -14 -23 -1 -4 11
-1 13 10 9 11 -4 14 -2 9 5 -4 7 1 10 14 7 32 -6 42 -16 36 -34 -5 -12 -3 -12
9 3 14 19 11 41 -5 31 -5 -3 -12 0 -16 7 -4 7 -4 10 1 6 4 -4 15 -2 23 5 10 7
13 8 9 1 -4 -8 1 -12 16 -12 12 1 38 -2 57 -5 19 -2 42 0 50 7 13 10 13 9 0
-8 -14 -18 -13 -19 3 -13 18 7 47 -1 47 -12 0 -4 -7 -8 -15 -8 -8 0 -12 4 -9
9 3 4 1 8 -5 8 -5 0 -13 -5 -17 -11 -4 -8 -9 -7 -16 2 -8 12 -9 11 -6 -1 3 -8
16 -14 30 -15 14 0 33 -7 44 -15 17 -13 18 -13 7 0 -9 12 -7 19 13 37 13 12
24 17 24 12 0 -6 5 -7 10 -4 6 4 8 10 5 15 -3 5 0 12 6 16 8 4 9 3 5 -4 -4 -7
-3 -12 3 -12 5 0 13 4 16 10 4 6 15 4 29 -5 12 -8 25 -12 28 -9 4 3 30 8 58
10 81 7 110 36 110 112 0 33 -38 82 -65 82 -6 0 -20 7 -31 15 -17 13 -16 14
16 5 19 -6 38 -10 42 -10 8 0 38 54 38 69 0 15 -60 31 -120 31 -48 0 -63 -5
-95 -30 -20 -16 -41 -27 -45 -25 -5 3 -11 -1 -14 -7 -3 -7 -4 -1 -2 15 3 22 1
25 -10 16 -17 -14 -18 2 -1 21 10 12 9 12 -4 2 -9 -6 -20 -8 -24 -4 -5 4 -5 2
-1 -5 4 -7 -5 -6 -24 4 -36 17 -109 19 -140 3 -12 -6 -28 -9 -36 -6 -8 3 -13
2 -10 -3 3 -5 -3 -19 -14 -31 -11 -13 -20 -18 -20 -12 0 7 -6 11 -12 9 -8 -1
-13 9 -12 25 0 15 -4 25 -8 22 -4 -3 -16 0 -25 5 -16 9 -16 10 -2 11 21 0 33
44 19 70 -21 40 -92 37 -111 -4 -13 -28 3 -65 29 -67 10 -1 7 -4 -8 -8 -16 -4
-25 -14 -25 -26 0 -11 -7 -26 -15 -33 -11 -10 -12 -15 -3 -18 10 -4 10 -9 -1
-20 -21 -20 -22 -19 -22 26 0 25 3 36 8 28 5 -9 8 -10 8 -1 0 6 -5 15 -10 18
-7 4 -7 12 0 25 6 11 6 21 1 24 -5 4 -8 17 -7 30 5 38 -5 45 -70 48 l-60 3 5
-30z m-83 -28 c4 -4 2 -7 -5 -7 -7 0 -10 -4 -6 -9 3 -5 0 -13 -7 -17 -7 -4
-10 -4 -6 1 13 14 -18 33 -45 28 -15 -3 -27 -1 -27 4 0 11 86 11 96 0z m-1010
-14 c-2 -10 -9 -18 -17 -18 -8 0 -13 -9 -12 -19 1 -13 -2 -15 -10 -7 -8 8 -4
18 13 36 28 30 29 30 26 8z m-56 -18 c-7 -8 -9 -15 -5 -15 4 0 2 -6 -4 -13 -6
-8 -9 -16 -6 -19 3 -2 -2 -5 -10 -5 -19 0 -19 2 1 21 11 11 12 16 3 16 -7 0
-4 6 7 15 25 19 30 19 14 0z m985 5 c-3 -5 -11 -10 -16 -10 -6 0 -7 5 -4 10 3
6 11 10 16 10 6 0 7 -4 4 -10z m-695 -62 c0 -6 -6 -5 -15 2 -8 7 -15 14 -15
16 0 2 7 1 15 -2 8 -4 15 -11 15 -16z m-168 -40 c-8 -8 -9 -4 -5 13 4 13 8 18
11 10 2 -7 -1 -18 -6 -23z m89 -82 c4 -5 13 -5 20 0 12 6 12 5 1 -8 -14 -18
-21 -12 -82 58 -21 24 -18 23 15 -6 22 -19 43 -39 46 -44z m1419 43 c0 -5 -5
-9 -11 -9 -5 0 -7 5 -3 12 5 7 2 9 -9 5 -11 -4 -14 -2 -10 9 4 11 9 12 19 3 8
-6 14 -15 14 -20z m-320 7 c0 -2 -8 -10 -17 -17 -16 -13 -17 -12 -4 4 13 16
21 21 21 13z m317 -41 c0 -8 -4 -12 -9 -9 -4 3 -8 -5 -8 -17 0 -19 2 -20 18
-8 15 13 16 12 4 -3 -16 -21 -43 -13 -35 10 6 16 23 42 28 42 1 0 2 -7 2 -15z
m-1463 -3 c2 -4 -4 -8 -14 -8 -10 0 -16 4 -14 8 3 4 9 8 14 8 5 0 11 -4 14 -8z
m1719 -36 c15 -3 27 -10 27 -15 0 -9 -28 -6 -60 6 -8 4 -19 5 -23 4 -5 -1 -6
3 -3 8 4 5 2 12 -4 16 -5 3 -10 1 -10 -5 0 -6 -5 -8 -11 -4 -8 4 -7 9 2 15 8
5 22 3 34 -5 11 -7 32 -16 48 -20z m-1629 9 c-4 -8 -11 -15 -16 -15 -6 0 -5 6
2 15 7 8 14 15 16 15 2 0 1 -7 -2 -15z m362 0 c9 -8 11 -15 6 -15 -5 0 -15 7
-22 15 -7 8 -9 15 -6 15 4 0 14 -7 22 -15z m351 0 c0 -8 -4 -12 -9 -9 -5 3 -6
10 -3 15 9 13 12 11 12 -6z m-878 -28 c-2 -1 -15 -11 -29 -22 l-25 -20 19 23
c11 12 24 22 29 22 6 0 8 -1 6 -3z m1221 -23 c0 -8 -19 -13 -24 -6 -3 5 1 9 9
9 8 0 15 -2 15 -3z m-1317 -59 c23 4 22 -7 -2 -22 -15 -10 -22 -9 -31 2 -7 8
-9 15 -5 15 4 0 1 8 -6 18 -13 16 -12 16 6 1 11 -9 28 -15 38 -14z m477 -3 c0
-15 -2 -15 -10 -2 -13 20 -13 33 0 25 6 -3 10 -14 10 -23z m1045 10 c-3 -3
-11 0 -18 7 -9 10 -8 11 6 5 10 -3 15 -9 12 -12z m-562 -17 c-3 -9 -8 -14 -10
-11 -3 3 -2 9 2 15 9 16 15 13 8 -4z m-68 -5 c3 -6 -1 -7 -9 -4 -18 7 -21 14
-7 14 6 0 13 -4 16 -10z m-815 -10 c0 -5 -2 -10 -4 -10 -3 0 -8 5 -11 10 -3 6
-1 10 4 10 6 0 11 -4 11 -10z m1660 0 c0 -5 -2 -10 -4 -10 -3 0 -8 5 -11 10
-3 6 -1 10 4 10 6 0 11 -4 11 -10z"/>
<path d="M986 68 c3 -5 10 -6 15 -3 13 9 11 12 -6 12 -8 0 -12 -4 -9 -9z"/>
<path d="M1040 440 c-9 -6 -10 -10 -3 -10 6 0 15 5 18 10 8 12 4 12 -15 0z"/>
<path d="M2480 351 c-7 -15 -7 -19 5 -17 8 1 18 6 22 11 5 4 2 5 -6 0 -11 -6
-13 -4 -8 8 9 23 0 21 -13 -2z"/>
<path d="M2790 340 c0 -5 7 -7 15 -4 8 4 15 8 15 10 0 2 -7 4 -15 4 -8 0 -15
-4 -15 -10z"/>
<path d="M954 280 c1 -32 10 -39 19 -15 4 8 2 17 -4 20 -5 4 -7 11 -4 16 4 5
2 9 -3 9 -5 0 -9 -13 -8 -30z"/>
<path d="M1610 244 c-9 -10 -9 -14 -1 -14 6 0 11 5 11 12 0 6 6 4 13 -6 12
-16 14 -16 14 -3 0 22 -23 29 -37 11z"/>
<path d="M926 118 c3 -5 10 -6 15 -3 13 9 11 12 -6 12 -8 0 -12 -4 -9 -9z"/>
<path d="M2335 69 c3 -8 15 -20 26 -27 12 -8 18 -9 14 -3 -3 6 -2 11 4 11 5 0
11 -6 14 -12 2 -7 8 -10 12 -5 5 4 0 14 -11 21 -11 9 -20 10 -23 5 -1 -6 -12
-2 -22 7 -15 13 -18 14 -14 3z"/>
<path d="M2829 78 c-8 -27 -5 -36 9 -30 10 4 12 7 4 10 -7 2 -10 8 -6 13 3 5
3 9 0 9 -3 0 -6 -1 -7 -2z"/>
<path d="M1159 59 c-11 -8 -10 -9 6 -7 11 1 25 -1 31 -4 6 -4 11 -1 11 5 0 16
-28 19 -48 6z"/>
<path d="M1504 62 c3 -5 0 -12 -6 -15 -7 -2 -10 -7 -7 -11 3 -4 12 0 18 8 9
11 9 16 0 22 -7 4 -9 3 -5 -4z"/>
<path d="M2146 58 c3 -5 10 -6 15 -3 13 9 11 12 -6 12 -8 0 -12 -4 -9 -9z"/>
<path d="M2575 60 c-3 -5 -1 -10 4 -10 6 0 11 5 11 10 0 6 -2 10 -4 10 -3 0
-8 -4 -11 -10z"/>
<path d="M1310 49 c0 -5 -4 -7 -10 -4 -6 3 -7 -1 -4 -10 6 -14 8 -14 21 2 14
17 14 17 8 -2 -5 -15 -3 -17 6 -8 6 6 8 16 5 22 -9 14 -26 14 -26 0z"/>
<path d="M1732 48 c-7 -7 -12 -17 -12 -22 0 -6 5 -3 11 7 6 9 15 14 21 11 7
-4 8 -2 4 4 -9 15 -9 15 -24 0z"/>
<path d="M2067 53 c-13 -12 -7 -23 11 -22 10 0 12 3 4 6 -6 2 -10 9 -6 14 6
10 0 12 -9 2z"/>
<path d="M2640 40 c-6 -11 -8 -20 -6 -20 3 0 10 9 16 20 6 11 8 20 6 20 -3 0
-10 -9 -16 -20z"/>
<path d="M2795 50 c-4 -6 -9 -8 -13 -6 -4 2 -13 -2 -20 -10 -16 -17 -11 -18
23 -2 14 6 25 15 25 20 0 11 -7 10 -15 -2z"/>
<path d="M1665 41 c-3 -5 -2 -12 3 -15 5 -3 9 1 9 9 0 17 -3 19 -12 6z"/>
<path d="M1695 41 c-3 -5 -2 -12 3 -15 5 -3 9 1 9 9 0 17 -3 19 -12 6z"/>
<path d="M2153 25 c0 -8 4 -12 9 -9 4 3 8 9 8 15 0 5 -4 9 -8 9 -5 0 -9 -7 -9
-15z"/>
<path d="M2033 15 c0 -8 4 -12 9 -9 4 3 8 9 8 15 0 5 -4 9 -8 9 -5 0 -9 -7 -9
-15z"/>
<path d="M2800 20 c-8 -5 -10 -10 -5 -10 6 0 17 5 25 10 8 5 11 10 5 10 -5 0
-17 -5 -25 -10z"/>
</g>
</svg>
